<mxfile host="app.diagrams.net" modified="2024-04-26T16:18:14.295Z" agent="Mozilla/5.0 (Macintosh; Intel Mac OS X 10.15; rv:124.0) Gecko/20100101 Firefox/124.0" etag="_iOrVyPyxNY3EOGTtjPn" version="24.3.1" type="device">
  <diagram name="PÃ¡gina-1" id="KM52wiOO5Fkb4vjMn1n8">
    <mxGraphModel dx="1026" dy="549" grid="1" gridSize="10" guides="1" tooltips="1" connect="1" arrows="1" fold="1" page="1" pageScale="1" pageWidth="827" pageHeight="1169" math="0" shadow="0">
      <root>
        <mxCell id="0" />
        <mxCell id="1" parent="0" />
        <mxCell id="SeKSxrOhnKXh1HSvLfsh-1" value="" style="rounded=0;whiteSpace=wrap;html=1;" vertex="1" parent="1">
          <mxGeometry x="110" y="120" width="580" height="380" as="geometry" />
        </mxCell>
        <mxCell id="DzYWUUFF_3GewZH_z49w-2" value="" style="rounded=0;whiteSpace=wrap;html=1;" parent="1" vertex="1">
          <mxGeometry x="120" y="130" width="560" height="280" as="geometry" />
        </mxCell>
        <mxCell id="DzYWUUFF_3GewZH_z49w-3" value="k8s cluster" style="text;html=1;align=center;verticalAlign=middle;whiteSpace=wrap;rounded=0;" parent="1" vertex="1">
          <mxGeometry x="130" y="370" width="60" height="30" as="geometry" />
        </mxCell>
        <mxCell id="DzYWUUFF_3GewZH_z49w-10" value="" style="shape=actor;whiteSpace=wrap;html=1;" parent="1" vertex="1">
          <mxGeometry x="380" y="430" width="40" height="60" as="geometry" />
        </mxCell>
        <mxCell id="DzYWUUFF_3GewZH_z49w-12" value="" style="rounded=0;whiteSpace=wrap;html=1;" parent="1" vertex="1">
          <mxGeometry x="140" y="140" width="120" height="170" as="geometry" />
        </mxCell>
        <mxCell id="DzYWUUFF_3GewZH_z49w-13" value="" style="rounded=0;whiteSpace=wrap;html=1;" parent="1" vertex="1">
          <mxGeometry x="340" y="140" width="120" height="170" as="geometry" />
        </mxCell>
        <mxCell id="DzYWUUFF_3GewZH_z49w-14" value="" style="rounded=0;whiteSpace=wrap;html=1;" parent="1" vertex="1">
          <mxGeometry x="530" y="140" width="120" height="170" as="geometry" />
        </mxCell>
        <mxCell id="DzYWUUFF_3GewZH_z49w-15" value="&lt;div&gt;Namespace 1&lt;/div&gt;" style="text;html=1;align=center;verticalAlign=middle;whiteSpace=wrap;rounded=0;" parent="1" vertex="1">
          <mxGeometry x="142" y="280" width="80" height="30" as="geometry" />
        </mxCell>
        <mxCell id="DzYWUUFF_3GewZH_z49w-16" value="&lt;div&gt;Namespace 2&lt;br&gt;&lt;/div&gt;" style="text;html=1;align=center;verticalAlign=middle;whiteSpace=wrap;rounded=0;" parent="1" vertex="1">
          <mxGeometry x="342" y="280" width="80" height="30" as="geometry" />
        </mxCell>
        <mxCell id="DzYWUUFF_3GewZH_z49w-17" value="&lt;div&gt;Namespace 3&lt;/div&gt;" style="text;html=1;align=center;verticalAlign=middle;whiteSpace=wrap;rounded=0;" parent="1" vertex="1">
          <mxGeometry x="532" y="280" width="80" height="30" as="geometry" />
        </mxCell>
        <mxCell id="DzYWUUFF_3GewZH_z49w-18" value="" style="rounded=1;whiteSpace=wrap;html=1;" parent="1" vertex="1">
          <mxGeometry x="140" y="150" width="120" height="60" as="geometry" />
        </mxCell>
        <mxCell id="DzYWUUFF_3GewZH_z49w-19" value="&lt;div&gt;Role:&lt;/div&gt;&lt;div&gt;- Permission 1&lt;/div&gt;&lt;div&gt;- Permission 2&lt;/div&gt;&lt;div&gt;- Permission 3&lt;br&gt;&lt;/div&gt;" style="text;html=1;align=center;verticalAlign=middle;whiteSpace=wrap;rounded=0;" parent="1" vertex="1">
          <mxGeometry x="151" y="165" width="98" height="30" as="geometry" />
        </mxCell>
        <mxCell id="DzYWUUFF_3GewZH_z49w-20" value="" style="rounded=1;whiteSpace=wrap;html=1;" parent="1" vertex="1">
          <mxGeometry x="340" y="150" width="120" height="60" as="geometry" />
        </mxCell>
        <mxCell id="DzYWUUFF_3GewZH_z49w-21" value="&lt;div&gt;Role:&lt;/div&gt;&lt;div&gt;- Permission 1&lt;/div&gt;&lt;div&gt;- Permission 2&lt;/div&gt;&lt;div&gt;- Permission 3&lt;br&gt;&lt;/div&gt;" style="text;html=1;align=center;verticalAlign=middle;whiteSpace=wrap;rounded=0;" parent="1" vertex="1">
          <mxGeometry x="351" y="165" width="98" height="30" as="geometry" />
        </mxCell>
        <mxCell id="DzYWUUFF_3GewZH_z49w-22" value="" style="rounded=1;whiteSpace=wrap;html=1;" parent="1" vertex="1">
          <mxGeometry x="532" y="150" width="120" height="60" as="geometry" />
        </mxCell>
        <mxCell id="DzYWUUFF_3GewZH_z49w-23" value="&lt;div&gt;Role:&lt;/div&gt;&lt;div&gt;- Permission 1&lt;/div&gt;&lt;div&gt;- Permission 2&lt;/div&gt;&lt;div&gt;- Permission 3&lt;br&gt;&lt;/div&gt;" style="text;html=1;align=center;verticalAlign=middle;whiteSpace=wrap;rounded=0;" parent="1" vertex="1">
          <mxGeometry x="543" y="165" width="98" height="30" as="geometry" />
        </mxCell>
        <mxCell id="DzYWUUFF_3GewZH_z49w-24" value="" style="rounded=1;whiteSpace=wrap;html=1;" parent="1" vertex="1">
          <mxGeometry x="560" y="330" width="120" height="60" as="geometry" />
        </mxCell>
        <mxCell id="DzYWUUFF_3GewZH_z49w-25" value="&lt;div&gt;Cluster Role:&lt;/div&gt;&lt;div&gt;- Permission 1&lt;/div&gt;&lt;div&gt;- Permission 2&lt;/div&gt;&lt;div&gt;- Permission 3&lt;br&gt;&lt;/div&gt;" style="text;html=1;align=center;verticalAlign=middle;whiteSpace=wrap;rounded=0;" parent="1" vertex="1">
          <mxGeometry x="571" y="345" width="98" height="30" as="geometry" />
        </mxCell>
        <mxCell id="DzYWUUFF_3GewZH_z49w-26" value="" style="endArrow=none;dashed=1;html=1;dashPattern=1 3;strokeWidth=2;rounded=0;exitX=0.5;exitY=0;exitDx=0;exitDy=0;entryX=1;entryY=0.5;entryDx=0;entryDy=0;" parent="1" source="DzYWUUFF_3GewZH_z49w-31" target="DzYWUUFF_3GewZH_z49w-19" edge="1">
          <mxGeometry width="50" height="50" relative="1" as="geometry">
            <mxPoint x="380" y="390" as="sourcePoint" />
            <mxPoint x="430" y="340" as="targetPoint" />
          </mxGeometry>
        </mxCell>
        <mxCell id="DzYWUUFF_3GewZH_z49w-27" value="" style="endArrow=none;dashed=1;html=1;dashPattern=1 3;strokeWidth=2;rounded=0;exitX=0.5;exitY=0;exitDx=0;exitDy=0;entryX=0.5;entryY=1;entryDx=0;entryDy=0;" parent="1" source="DzYWUUFF_3GewZH_z49w-33" target="DzYWUUFF_3GewZH_z49w-21" edge="1">
          <mxGeometry width="50" height="50" relative="1" as="geometry">
            <mxPoint x="410" y="440" as="sourcePoint" />
            <mxPoint x="259" y="190" as="targetPoint" />
          </mxGeometry>
        </mxCell>
        <mxCell id="DzYWUUFF_3GewZH_z49w-28" value="" style="endArrow=none;dashed=1;html=1;dashPattern=1 3;strokeWidth=2;rounded=0;exitX=0.5;exitY=0;exitDx=0;exitDy=0;entryX=0.5;entryY=1;entryDx=0;entryDy=0;" parent="1" source="DzYWUUFF_3GewZH_z49w-10" target="DzYWUUFF_3GewZH_z49w-22" edge="1">
          <mxGeometry width="50" height="50" relative="1" as="geometry">
            <mxPoint x="410" y="440" as="sourcePoint" />
            <mxPoint x="410" y="205" as="targetPoint" />
          </mxGeometry>
        </mxCell>
        <mxCell id="DzYWUUFF_3GewZH_z49w-29" value="" style="endArrow=none;dashed=1;html=1;dashPattern=1 3;strokeWidth=2;rounded=0;entryX=0;entryY=0.5;entryDx=0;entryDy=0;" parent="1" target="DzYWUUFF_3GewZH_z49w-24" edge="1">
          <mxGeometry width="50" height="50" relative="1" as="geometry">
            <mxPoint x="420" y="440" as="sourcePoint" />
            <mxPoint x="420" y="215" as="targetPoint" />
          </mxGeometry>
        </mxCell>
        <mxCell id="DzYWUUFF_3GewZH_z49w-32" value="" style="endArrow=none;dashed=1;html=1;dashPattern=1 3;strokeWidth=2;rounded=0;exitX=0.5;exitY=0;exitDx=0;exitDy=0;entryX=0.5;entryY=1;entryDx=0;entryDy=0;" parent="1" source="DzYWUUFF_3GewZH_z49w-10" target="DzYWUUFF_3GewZH_z49w-31" edge="1">
          <mxGeometry width="50" height="50" relative="1" as="geometry">
            <mxPoint x="400" y="430" as="sourcePoint" />
            <mxPoint x="249" y="180" as="targetPoint" />
          </mxGeometry>
        </mxCell>
        <mxCell id="DzYWUUFF_3GewZH_z49w-31" value="Role Binding" style="rounded=1;whiteSpace=wrap;html=1;" parent="1" vertex="1">
          <mxGeometry x="249" y="330" width="80" height="30" as="geometry" />
        </mxCell>
        <mxCell id="DzYWUUFF_3GewZH_z49w-34" value="" style="endArrow=none;dashed=1;html=1;dashPattern=1 3;strokeWidth=2;rounded=0;exitX=0.5;exitY=0;exitDx=0;exitDy=0;entryX=0.5;entryY=1;entryDx=0;entryDy=0;" parent="1" source="DzYWUUFF_3GewZH_z49w-10" target="DzYWUUFF_3GewZH_z49w-33" edge="1">
          <mxGeometry width="50" height="50" relative="1" as="geometry">
            <mxPoint x="400" y="430" as="sourcePoint" />
            <mxPoint x="400" y="195" as="targetPoint" />
          </mxGeometry>
        </mxCell>
        <mxCell id="DzYWUUFF_3GewZH_z49w-33" value="Role Binding" style="rounded=1;whiteSpace=wrap;html=1;" parent="1" vertex="1">
          <mxGeometry x="360" y="330" width="80" height="30" as="geometry" />
        </mxCell>
        <mxCell id="DzYWUUFF_3GewZH_z49w-35" value="Role Binding" style="rounded=1;whiteSpace=wrap;html=1;" parent="1" vertex="1">
          <mxGeometry x="449" y="315" width="80" height="30" as="geometry" />
        </mxCell>
        <mxCell id="DzYWUUFF_3GewZH_z49w-37" value="Cluster Role Binding" style="rounded=1;whiteSpace=wrap;html=1;" parent="1" vertex="1">
          <mxGeometry x="463" y="370" width="80" height="30" as="geometry" />
        </mxCell>
      </root>
    </mxGraphModel>
  </diagram>
</mxfile>
